<mxfile host="app.diagrams.net" modified="2023-07-28T09:20:11.712Z" agent="Mozilla/5.0 (Windows NT 10.0; Win64; x64) AppleWebKit/537.36 (KHTML, like Gecko) Chrome/115.0.0.0 Safari/537.36 Edg/115.0.1901.183" etag="LwRDqo34pP5QEEmeqAWp" version="21.6.5" type="device">
  <diagram name="第 1 页" id="xo_OWu81B4Lztj_WRtyt">
    <mxGraphModel dx="2847" dy="1846" grid="1" gridSize="10" guides="1" tooltips="1" connect="1" arrows="1" fold="1" page="1" pageScale="1" pageWidth="827" pageHeight="1169" math="0" shadow="0">
      <root>
        <mxCell id="0" />
        <mxCell id="1" parent="0" />
        <mxCell id="WZiGVIkwPijSqolq5ETo-22" value="&lt;p style=&quot;margin:0px;margin-top:4px;text-align:center;&quot;&gt;发送和执行事件机制&lt;/p&gt;" style="verticalAlign=top;align=left;overflow=fill;fontSize=12;fontFamily=Helvetica;html=1;whiteSpace=wrap;movable=0;resizable=0;rotatable=0;deletable=0;editable=0;locked=1;connectable=0;container=0;" parent="1" vertex="1">
          <mxGeometry x="-1450" y="-220" width="990" height="920" as="geometry" />
        </mxCell>
        <mxCell id="WUPNL0zkg_p5FXINCF05-12" value="socialsdk" style="shape=module;align=left;spacingLeft=20;align=center;verticalAlign=top;whiteSpace=wrap;html=1;strokeColor=default;fontFamily=Helvetica;fontSize=12;fontColor=default;fillColor=default;" parent="1" vertex="1">
          <mxGeometry x="-515" y="720" width="750" height="370" as="geometry" />
        </mxCell>
        <mxCell id="WUPNL0zkg_p5FXINCF05-6" value="sdk" style="shape=module;align=left;spacingLeft=20;align=center;verticalAlign=top;whiteSpace=wrap;html=1;strokeColor=default;fontFamily=Helvetica;fontSize=12;fontColor=default;fillColor=default;" parent="1" vertex="1">
          <mxGeometry x="-350" y="340" width="400" height="330" as="geometry" />
        </mxCell>
        <mxCell id="WUPNL0zkg_p5FXINCF05-3" value="SDK（中介）" style="html=1;whiteSpace=wrap;" parent="1" vertex="1">
          <mxGeometry x="-205" y="430" width="110" height="50" as="geometry" />
        </mxCell>
        <mxCell id="WUPNL0zkg_p5FXINCF05-4" value="&lt;pre style=&quot;font-family: &amp;quot;JetBrains Mono&amp;quot;, monospace; font-size: 9.8pt;&quot;&gt;&lt;span style=&quot;background-color: rgb(255, 255, 255);&quot;&gt;ModuleManager&lt;/span&gt;&lt;/pre&gt;" style="html=1;whiteSpace=wrap;" parent="1" vertex="1">
          <mxGeometry x="-205" y="550" width="110" height="50" as="geometry" />
        </mxCell>
        <mxCell id="WUPNL0zkg_p5FXINCF05-5" value="Use" style="endArrow=open;endSize=12;dashed=1;html=1;rounded=0;exitX=0.5;exitY=1;exitDx=0;exitDy=0;entryX=0.5;entryY=0;entryDx=0;entryDy=0;" parent="1" source="WUPNL0zkg_p5FXINCF05-3" target="WUPNL0zkg_p5FXINCF05-4" edge="1">
          <mxGeometry width="160" relative="1" as="geometry">
            <mxPoint x="-25" y="480" as="sourcePoint" />
            <mxPoint x="135" y="480" as="targetPoint" />
          </mxGeometry>
        </mxCell>
        <mxCell id="WUPNL0zkg_p5FXINCF05-7" value="AuthActivity(苹果网页登录页面)" style="html=1;whiteSpace=wrap;strokeColor=default;fontFamily=Helvetica;fontSize=12;fontColor=default;fillColor=default;" parent="1" vertex="1">
          <mxGeometry x="-480" y="860" width="110" height="50" as="geometry" />
        </mxCell>
        <mxCell id="WUPNL0zkg_p5FXINCF05-8" value="&lt;pre style=&quot;background-color:#1a1f30;color:#afb9c3;font-family:&#39;JetBrains Mono&#39;,monospace;font-size:9.8pt;&quot;&gt;ConfigWrapper（存储sdk配置信息）&lt;/pre&gt;" style="html=1;whiteSpace=wrap;strokeColor=default;fontFamily=Helvetica;fontSize=12;fontColor=default;fillColor=default;" parent="1" vertex="1">
          <mxGeometry x="-280" y="850" width="260" height="70" as="geometry" />
        </mxCell>
        <mxCell id="WUPNL0zkg_p5FXINCF05-9" value="&lt;pre style=&quot;background-color:#1a1f30;color:#afb9c3;font-family:&#39;JetBrains Mono&#39;,monospace;font-size:9.8pt;&quot;&gt;InitResultModel（）配置信息的model类&lt;/pre&gt;&lt;pre style=&quot;background-color:#1a1f30;color:#afb9c3;font-family:&#39;JetBrains Mono&#39;,monospace;font-size:9.8pt;&quot;&gt;通过网络请求获得&lt;/pre&gt;" style="html=1;whiteSpace=wrap;strokeColor=default;fontFamily=Helvetica;fontSize=12;fontColor=default;fillColor=default;" parent="1" vertex="1">
          <mxGeometry x="-110" y="970" width="290" height="80" as="geometry" />
        </mxCell>
        <mxCell id="WUPNL0zkg_p5FXINCF05-10" value="&lt;pre style=&quot;background-color:#1a1f30;color:#afb9c3;font-family:&#39;JetBrains Mono&#39;,monospace;font-size:9.8pt;&quot;&gt;InitializeParameters（本地json文件配置信息）&lt;/pre&gt;" style="html=1;whiteSpace=wrap;strokeColor=default;fontFamily=Helvetica;fontSize=12;fontColor=default;fillColor=default;" parent="1" vertex="1">
          <mxGeometry x="-500" y="950" width="310" height="90" as="geometry" />
        </mxCell>
        <mxCell id="WUPNL0zkg_p5FXINCF05-11" value="从这两个类中获取数据并保存" style="text;html=1;align=center;verticalAlign=middle;resizable=0;points=[];autosize=1;strokeColor=none;fillColor=none;fontSize=12;fontFamily=Helvetica;fontColor=default;" parent="1" vertex="1">
          <mxGeometry x="-220" y="920" width="180" height="30" as="geometry" />
        </mxCell>
        <mxCell id="WUPNL0zkg_p5FXINCF05-13" value="Use" style="endArrow=open;endSize=12;dashed=1;html=1;rounded=0;fontFamily=Helvetica;fontSize=12;fontColor=default;entryX=0;entryY=0.5;entryDx=0;entryDy=0;exitX=1;exitY=0.5;exitDx=0;exitDy=0;" parent="1" source="WUPNL0zkg_p5FXINCF05-7" target="WUPNL0zkg_p5FXINCF05-8" edge="1">
          <mxGeometry width="160" relative="1" as="geometry">
            <mxPoint x="-370" y="900" as="sourcePoint" />
            <mxPoint x="-210" y="900" as="targetPoint" />
          </mxGeometry>
        </mxCell>
        <mxCell id="WUPNL0zkg_p5FXINCF05-14" value="&lt;pre style=&quot;background-color:#1a1f30;color:#afb9c3;font-family:&#39;JetBrains Mono&#39;,monospace;font-size:9.8pt;&quot;&gt;SocialSdk（享元，获取各种登录方式的Platform类）&lt;/pre&gt;" style="html=1;whiteSpace=wrap;strokeColor=default;fontFamily=Helvetica;fontSize=12;fontColor=default;fillColor=default;" parent="1" vertex="1">
          <mxGeometry x="-295" y="750" width="355" height="80" as="geometry" />
        </mxCell>
        <mxCell id="-0P7hH4aB7yevgCZulRK-15" value="调用了之前new的Platform的login方法，login方法传入FinishLoginListener，&lt;br style=&quot;border-color: var(--border-color);&quot;&gt;而这个监听器里面引用了OnLoginListener" style="text;html=1;align=center;verticalAlign=middle;resizable=0;points=[];autosize=1;strokeColor=none;fillColor=none;" parent="1" vertex="1">
          <mxGeometry x="-975" y="1010" width="420" height="40" as="geometry" />
        </mxCell>
        <mxCell id="WZiGVIkwPijSqolq5ETo-26" value="" style="group" parent="1" vertex="1" connectable="0">
          <mxGeometry x="-1170" y="850" width="580" height="460" as="geometry" />
        </mxCell>
        <mxCell id="-0P7hH4aB7yevgCZulRK-1" value="LoginManager" style="html=1;whiteSpace=wrap;" parent="WZiGVIkwPijSqolq5ETo-26" vertex="1">
          <mxGeometry x="130" y="210" width="110" height="50" as="geometry" />
        </mxCell>
        <mxCell id="-0P7hH4aB7yevgCZulRK-2" value="login方法new了一个Platform，并启动ActionActivity" style="text;html=1;align=center;verticalAlign=middle;resizable=0;points=[];autosize=1;strokeColor=none;fillColor=none;" parent="WZiGVIkwPijSqolq5ETo-26" vertex="1">
          <mxGeometry x="30" y="319" width="290" height="30" as="geometry" />
        </mxCell>
        <mxCell id="-0P7hH4aB7yevgCZulRK-3" value="PlatformManager" style="html=1;whiteSpace=wrap;" parent="WZiGVIkwPijSqolq5ETo-26" vertex="1">
          <mxGeometry x="300" y="370" width="110" height="50" as="geometry" />
        </mxCell>
        <mxCell id="-0P7hH4aB7yevgCZulRK-9" value="调用PlatformManager.action" style="text;html=1;align=center;verticalAlign=middle;resizable=0;points=[];autosize=1;strokeColor=none;fillColor=none;" parent="WZiGVIkwPijSqolq5ETo-26" vertex="1">
          <mxGeometry x="190" y="430" width="170" height="30" as="geometry" />
        </mxCell>
        <mxCell id="-0P7hH4aB7yevgCZulRK-11" style="edgeStyle=orthogonalEdgeStyle;rounded=0;orthogonalLoop=1;jettySize=auto;html=1;exitX=1;exitY=0.5;exitDx=0;exitDy=0;entryX=0;entryY=0.5;entryDx=0;entryDy=0;" parent="WZiGVIkwPijSqolq5ETo-26" source="-0P7hH4aB7yevgCZulRK-10" target="-0P7hH4aB7yevgCZulRK-3" edge="1">
          <mxGeometry relative="1" as="geometry" />
        </mxCell>
        <mxCell id="-0P7hH4aB7yevgCZulRK-10" value="ActionActivity" style="html=1;whiteSpace=wrap;" parent="WZiGVIkwPijSqolq5ETo-26" vertex="1">
          <mxGeometry x="130" y="370" width="110" height="50" as="geometry" />
        </mxCell>
        <mxCell id="-0P7hH4aB7yevgCZulRK-25" style="edgeStyle=orthogonalEdgeStyle;rounded=0;orthogonalLoop=1;jettySize=auto;html=1;exitX=0.5;exitY=1;exitDx=0;exitDy=0;" parent="WZiGVIkwPijSqolq5ETo-26" source="-0P7hH4aB7yevgCZulRK-1" target="-0P7hH4aB7yevgCZulRK-10" edge="1">
          <mxGeometry relative="1" as="geometry" />
        </mxCell>
        <mxCell id="-0P7hH4aB7yevgCZulRK-12" value="Platform" style="html=1;whiteSpace=wrap;" parent="WZiGVIkwPijSqolq5ETo-26" vertex="1">
          <mxGeometry x="300" y="90" width="110" height="50" as="geometry" />
        </mxCell>
        <mxCell id="-0P7hH4aB7yevgCZulRK-30" style="edgeStyle=orthogonalEdgeStyle;rounded=0;orthogonalLoop=1;jettySize=auto;html=1;exitX=0;exitY=0.5;exitDx=0;exitDy=0;" parent="WZiGVIkwPijSqolq5ETo-26" source="-0P7hH4aB7yevgCZulRK-16" target="-0P7hH4aB7yevgCZulRK-1" edge="1">
          <mxGeometry relative="1" as="geometry" />
        </mxCell>
        <mxCell id="-0P7hH4aB7yevgCZulRK-16" value="AccoutActivity" style="html=1;whiteSpace=wrap;" parent="WZiGVIkwPijSqolq5ETo-26" vertex="1">
          <mxGeometry x="210" width="110" height="50" as="geometry" />
        </mxCell>
        <mxCell id="-0P7hH4aB7yevgCZulRK-21" style="edgeStyle=orthogonalEdgeStyle;rounded=0;orthogonalLoop=1;jettySize=auto;html=1;exitX=0.5;exitY=0;exitDx=0;exitDy=0;entryX=1;entryY=0.5;entryDx=0;entryDy=0;" parent="WZiGVIkwPijSqolq5ETo-26" source="-0P7hH4aB7yevgCZulRK-12" target="-0P7hH4aB7yevgCZulRK-16" edge="1">
          <mxGeometry relative="1" as="geometry" />
        </mxCell>
        <mxCell id="-0P7hH4aB7yevgCZulRK-17" value="结果会调用OnLoginListener而执行AccountActivity监听器里的方法" style="text;html=1;align=center;verticalAlign=middle;resizable=0;points=[];autosize=1;strokeColor=none;fillColor=none;" parent="WZiGVIkwPijSqolq5ETo-26" vertex="1">
          <mxGeometry x="210" y="60" width="370" height="30" as="geometry" />
        </mxCell>
        <mxCell id="-0P7hH4aB7yevgCZulRK-19" value="调用login方法传入OnLoginListener&lt;br&gt;监听器" style="text;html=1;align=center;verticalAlign=middle;resizable=0;points=[];autosize=1;strokeColor=none;fillColor=none;" parent="WZiGVIkwPijSqolq5ETo-26" vertex="1">
          <mxGeometry y="70" width="210" height="40" as="geometry" />
        </mxCell>
        <mxCell id="-0P7hH4aB7yevgCZulRK-29" style="edgeStyle=orthogonalEdgeStyle;rounded=0;orthogonalLoop=1;jettySize=auto;html=1;exitX=0.5;exitY=0;exitDx=0;exitDy=0;entryX=0.5;entryY=1;entryDx=0;entryDy=0;" parent="WZiGVIkwPijSqolq5ETo-26" source="-0P7hH4aB7yevgCZulRK-22" target="-0P7hH4aB7yevgCZulRK-12" edge="1">
          <mxGeometry relative="1" as="geometry" />
        </mxCell>
        <mxCell id="-0P7hH4aB7yevgCZulRK-22" value="LoginManager" style="html=1;whiteSpace=wrap;" parent="WZiGVIkwPijSqolq5ETo-26" vertex="1">
          <mxGeometry x="300" y="210" width="110" height="50" as="geometry" />
        </mxCell>
        <mxCell id="-0P7hH4aB7yevgCZulRK-27" style="edgeStyle=orthogonalEdgeStyle;rounded=0;orthogonalLoop=1;jettySize=auto;html=1;exitX=0.5;exitY=0;exitDx=0;exitDy=0;entryX=0.5;entryY=1;entryDx=0;entryDy=0;" parent="WZiGVIkwPijSqolq5ETo-26" source="-0P7hH4aB7yevgCZulRK-3" target="-0P7hH4aB7yevgCZulRK-22" edge="1">
          <mxGeometry relative="1" as="geometry" />
        </mxCell>
        <mxCell id="-0P7hH4aB7yevgCZulRK-26" value="执行了LoginManager的_actionLogin" style="text;html=1;align=center;verticalAlign=middle;resizable=0;points=[];autosize=1;strokeColor=none;fillColor=none;" parent="WZiGVIkwPijSqolq5ETo-26" vertex="1">
          <mxGeometry x="245" y="289" width="220" height="30" as="geometry" />
        </mxCell>
        <mxCell id="WZiGVIkwPijSqolq5ETo-1" value="&lt;div style=&quot;background-color:#17233d;color:#afb9c3;font-family:&#39;JetBrains Mono&#39;,monospace;font-size:9.8pt;&quot;&gt;&lt;pre&gt;EventPublisher&lt;/pre&gt;&lt;/div&gt;" style="html=1;whiteSpace=wrap;movable=0;resizable=0;rotatable=0;deletable=0;editable=0;locked=1;connectable=0;container=0;" parent="1" vertex="1">
          <mxGeometry x="-1114" y="148" width="110" height="50" as="geometry" />
        </mxCell>
        <mxCell id="WZiGVIkwPijSqolq5ETo-2" value="&lt;div style=&quot;background-color:#17233d;color:#afb9c3;font-family:&#39;JetBrains Mono&#39;,monospace;font-size:9.8pt;&quot;&gt;&lt;pre&gt;BaseReceiver&lt;/pre&gt;&lt;/div&gt;" style="html=1;whiteSpace=wrap;movable=0;resizable=0;rotatable=0;deletable=0;editable=0;locked=1;connectable=0;container=0;" parent="1" vertex="1">
          <mxGeometry x="-1114" y="248" width="110" height="50" as="geometry" />
        </mxCell>
        <mxCell id="WZiGVIkwPijSqolq5ETo-4" style="edgeStyle=orthogonalEdgeStyle;rounded=0;orthogonalLoop=1;jettySize=auto;html=1;exitX=0.5;exitY=1;exitDx=0;exitDy=0;movable=0;resizable=0;rotatable=0;deletable=0;editable=0;locked=1;connectable=0;" parent="1" source="WZiGVIkwPijSqolq5ETo-1" target="WZiGVIkwPijSqolq5ETo-2" edge="1">
          <mxGeometry relative="1" as="geometry" />
        </mxCell>
        <mxCell id="WZiGVIkwPijSqolq5ETo-11" value="&lt;div style=&quot;font-family: &amp;quot;JetBrains Mono&amp;quot;, monospace; font-size: 9.8pt;&quot;&gt;&lt;pre style=&quot;&quot;&gt;&lt;font style=&quot;background-color: rgb(255, 255, 255);&quot; color=&quot;#1a1f30&quot;&gt;publish发送事件&lt;/font&gt;&lt;/pre&gt;&lt;/div&gt;" style="edgeLabel;html=1;align=center;verticalAlign=middle;resizable=0;points=[];movable=0;rotatable=0;deletable=0;editable=0;locked=1;connectable=0;container=0;" parent="WZiGVIkwPijSqolq5ETo-4" vertex="1" connectable="0">
          <mxGeometry x="-0.3267" y="-2" relative="1" as="geometry">
            <mxPoint x="-1" y="-100" as="offset" />
          </mxGeometry>
        </mxCell>
        <mxCell id="WZiGVIkwPijSqolq5ETo-3" value="&lt;div style=&quot;background-color:#17233d;color:#afb9c3;font-family:&#39;JetBrains Mono&#39;,monospace;font-size:9.8pt;&quot;&gt;&lt;pre&gt;BaseReceiver.Visitor&lt;/pre&gt;&lt;/div&gt;" style="html=1;whiteSpace=wrap;movable=0;resizable=0;rotatable=0;deletable=0;editable=0;locked=1;connectable=0;container=0;" parent="1" vertex="1">
          <mxGeometry x="-1134" y="382.5" width="150" height="60" as="geometry" />
        </mxCell>
        <mxCell id="WZiGVIkwPijSqolq5ETo-5" style="edgeStyle=orthogonalEdgeStyle;rounded=0;orthogonalLoop=1;jettySize=auto;html=1;exitX=0.5;exitY=1;exitDx=0;exitDy=0;entryX=0.5;entryY=0;entryDx=0;entryDy=0;movable=0;resizable=0;rotatable=0;deletable=0;editable=0;locked=1;connectable=0;" parent="1" source="WZiGVIkwPijSqolq5ETo-2" target="WZiGVIkwPijSqolq5ETo-3" edge="1">
          <mxGeometry relative="1" as="geometry" />
        </mxCell>
        <mxCell id="WZiGVIkwPijSqolq5ETo-12" value="调用静态方法visit，传入实现了的BaseReceiver.Visitor、eventID、参数" style="edgeLabel;html=1;align=center;verticalAlign=middle;resizable=0;points=[];movable=0;rotatable=0;deletable=0;editable=0;locked=1;connectable=0;container=0;" parent="WZiGVIkwPijSqolq5ETo-5" vertex="1" connectable="0">
          <mxGeometry x="-0.363" y="1" relative="1" as="geometry">
            <mxPoint x="29" y="-107" as="offset" />
          </mxGeometry>
        </mxCell>
        <mxCell id="WZiGVIkwPijSqolq5ETo-13" value="循环mContainer获取BaseReceiver，然后调用Visitor的&lt;br&gt;visit方法，传入BaseReceiver、eventID、参数" style="edgeLabel;html=1;align=center;verticalAlign=middle;resizable=0;points=[];movable=0;rotatable=0;deletable=0;editable=0;locked=1;connectable=0;container=0;" parent="WZiGVIkwPijSqolq5ETo-5" vertex="1" connectable="0">
          <mxGeometry x="-0.2404" relative="1" as="geometry">
            <mxPoint x="-1" y="10" as="offset" />
          </mxGeometry>
        </mxCell>
        <mxCell id="WZiGVIkwPijSqolq5ETo-6" value="SDK" style="html=1;whiteSpace=wrap;movable=0;resizable=0;rotatable=0;deletable=0;editable=0;locked=1;connectable=0;container=0;" parent="1" vertex="1">
          <mxGeometry x="-915" y="-110" width="110" height="50" as="geometry" />
        </mxCell>
        <mxCell id="WZiGVIkwPijSqolq5ETo-7" value="&lt;div style=&quot;background-color:#17233d;color:#afb9c3;font-family:&#39;JetBrains Mono&#39;,monospace;font-size:9.8pt;&quot;&gt;&lt;pre&gt;ModuleManager&lt;/pre&gt;&lt;/div&gt;" style="html=1;whiteSpace=wrap;movable=0;resizable=0;rotatable=0;deletable=0;editable=0;locked=1;connectable=0;container=0;" parent="1" vertex="1">
          <mxGeometry x="-915" y="30" width="110" height="50" as="geometry" />
        </mxCell>
        <mxCell id="WZiGVIkwPijSqolq5ETo-8" style="edgeStyle=orthogonalEdgeStyle;rounded=0;orthogonalLoop=1;jettySize=auto;html=1;exitX=0.5;exitY=1;exitDx=0;exitDy=0;movable=0;resizable=0;rotatable=0;deletable=0;editable=0;locked=1;connectable=0;" parent="1" source="WZiGVIkwPijSqolq5ETo-6" target="WZiGVIkwPijSqolq5ETo-7" edge="1">
          <mxGeometry relative="1" as="geometry" />
        </mxCell>
        <mxCell id="WZiGVIkwPijSqolq5ETo-9" value="&lt;div style=&quot;background-color:#17233d;color:#afb9c3;font-family:&#39;JetBrains Mono&#39;,monospace;font-size:9.8pt;&quot;&gt;&lt;pre&gt;registeSDKEventReceiver&lt;/pre&gt;&lt;/div&gt;" style="text;html=1;align=center;verticalAlign=middle;resizable=0;points=[];autosize=1;strokeColor=none;fillColor=none;movable=0;rotatable=0;deletable=0;editable=0;locked=1;connectable=0;container=0;" parent="1" vertex="1">
          <mxGeometry x="-939" y="-40" width="180" height="60" as="geometry" />
        </mxCell>
        <mxCell id="WZiGVIkwPijSqolq5ETo-10" value="添加到List&amp;lt;SDKEventReceiver&amp;gt;，这里是为了保持引用，防止对象被回收，没有其他作用，&lt;br&gt;具体获取是通过CopyOnWriteArrayList&lt;span style=&quot;border-color: var(--border-color); background-color: rgb(23, 35, 61); font-family: &amp;quot;JetBrains Mono&amp;quot;, monospace; font-size: 9.8pt; color: rgb(232, 186, 54);&quot;&gt;&amp;lt;&lt;/span&gt;&lt;span style=&quot;border-color: var(--border-color); background-color: rgb(23, 35, 61); color: rgb(175, 185, 195); font-family: &amp;quot;JetBrains Mono&amp;quot;, monospace; font-size: 9.8pt;&quot;&gt;WeakReference&lt;/span&gt;&lt;span style=&quot;border-color: var(--border-color); background-color: rgb(23, 35, 61); font-family: &amp;quot;JetBrains Mono&amp;quot;, monospace; font-size: 9.8pt; color: rgb(84, 168, 87);&quot;&gt;&amp;lt;&lt;/span&gt;&lt;span style=&quot;border-color: var(--border-color); background-color: rgb(23, 35, 61); color: rgb(175, 185, 195); font-family: &amp;quot;JetBrains Mono&amp;quot;, monospace; font-size: 9.8pt;&quot;&gt;BaseReceiver&lt;/span&gt;&lt;span style=&quot;border-color: var(--border-color); background-color: rgb(23, 35, 61); font-family: &amp;quot;JetBrains Mono&amp;quot;, monospace; font-size: 9.8pt; color: rgb(84, 168, 87);&quot;&gt;&amp;gt;&lt;/span&gt;&lt;span style=&quot;border-color: var(--border-color); background-color: rgb(23, 35, 61); font-family: &amp;quot;JetBrains Mono&amp;quot;, monospace; font-size: 9.8pt; color: rgb(232, 186, 54);&quot;&gt;&amp;gt;&amp;nbsp;&lt;/span&gt;&lt;span style=&quot;border-color: var(--border-color); background-color: rgb(23, 35, 61); font-family: &amp;quot;JetBrains Mono&amp;quot;, monospace; font-size: 9.8pt; color: rgb(255, 150, 150);&quot;&gt;mContainer&lt;/span&gt;" style="text;html=1;align=center;verticalAlign=middle;resizable=0;points=[];autosize=1;strokeColor=none;fillColor=none;movable=0;rotatable=0;deletable=0;editable=0;locked=1;connectable=0;container=0;" parent="1" vertex="1">
          <mxGeometry x="-975" y="90" width="510" height="40" as="geometry" />
        </mxCell>
        <mxCell id="WZiGVIkwPijSqolq5ETo-14" value="1.判断receiver是否hasScaned，没有则调用receiver的scanSubscriber&lt;br&gt;会执行&lt;span style=&quot;color: rgb(255, 200, 110); background-color: rgb(23, 35, 61); font-family: &amp;quot;JetBrains Mono&amp;quot;, monospace; font-size: 9.8pt;&quot;&gt;searchDeclaredMethods&lt;/span&gt;，判断当前类比BaseReceiver新增的&lt;span style=&quot;color: rgb(187, 181, 41); background-color: rgb(23, 35, 61); font-family: &amp;quot;JetBrains Mono&amp;quot;, monospace; font-size: 9.8pt;&quot;&gt;SDKEventSubscribe&lt;/span&gt;方法然后添加到mEvents(&lt;span style=&quot;background-color: initial;&quot;&gt;Map)中&lt;/span&gt;&lt;br&gt;eventID作为key，&lt;span style=&quot;color: rgb(255, 200, 110); background-color: rgb(23, 35, 61); font-family: &amp;quot;JetBrains Mono&amp;quot;, monospace; font-size: 9.8pt;&quot;&gt;EventDispatcher&lt;/span&gt;&lt;font color=&quot;#1a1f30&quot;&gt;作为value&lt;br&gt;2.执行receiver的&lt;/font&gt;&lt;span style=&quot;color: rgb(255, 200, 110); background-color: rgb(23, 35, 61); font-family: &amp;quot;JetBrains Mono&amp;quot;, monospace; font-size: 9.8pt;&quot;&gt;handle&lt;/span&gt;&lt;span style=&quot;font-family: &amp;quot;JetBrains Mono&amp;quot;, monospace; font-size: 9.8pt; background-color: rgb(255, 255, 255);&quot;&gt;&lt;font color=&quot;#1a1f30&quot;&gt;方法传入eventID和参数&lt;/font&gt;&lt;/span&gt;" style="text;html=1;align=center;verticalAlign=middle;resizable=0;points=[];autosize=1;strokeColor=none;fillColor=none;movable=0;rotatable=0;deletable=0;editable=0;locked=1;connectable=0;container=0;" parent="1" vertex="1">
          <mxGeometry x="-1390" y="450" width="690" height="70" as="geometry" />
        </mxCell>
        <mxCell id="WZiGVIkwPijSqolq5ETo-23" value="&lt;div style=&quot;background-color:#17233d;color:#afb9c3;font-family:&#39;JetBrains Mono&#39;,monospace;font-size:9.8pt;&quot;&gt;&lt;pre&gt;BaseReceiver&lt;/pre&gt;&lt;/div&gt;" style="html=1;whiteSpace=wrap;movable=0;resizable=0;rotatable=0;deletable=0;editable=0;locked=1;connectable=0;container=0;" parent="1" vertex="1">
          <mxGeometry x="-1114" y="540" width="110" height="50" as="geometry" />
        </mxCell>
        <mxCell id="WZiGVIkwPijSqolq5ETo-24" style="edgeStyle=orthogonalEdgeStyle;rounded=0;orthogonalLoop=1;jettySize=auto;html=1;exitX=0.5;exitY=1;exitDx=0;exitDy=0;entryX=0.5;entryY=0;entryDx=0;entryDy=0;movable=0;resizable=0;rotatable=0;deletable=0;editable=0;locked=1;connectable=0;" parent="1" source="WZiGVIkwPijSqolq5ETo-3" target="WZiGVIkwPijSqolq5ETo-23" edge="1">
          <mxGeometry relative="1" as="geometry" />
        </mxCell>
        <mxCell id="WZiGVIkwPijSqolq5ETo-27" value="通过eventID从mEvent(Map)中获取EventDispatcher，执行它的dispatch方法会invoke类中的Method常量（会判断是否是静态方法、对象是否被回收、是否有参数）" style="text;html=1;strokeColor=none;fillColor=none;align=center;verticalAlign=middle;whiteSpace=wrap;rounded=0;movable=0;resizable=0;rotatable=0;deletable=0;editable=0;locked=1;connectable=0;" parent="1" vertex="1">
          <mxGeometry x="-1155" y="600" width="220" height="80" as="geometry" />
        </mxCell>
        <mxCell id="WZiGVIkwPijSqolq5ETo-28" value="&lt;div style=&quot;background-color:#17233d;color:#afb9c3;font-family:&#39;JetBrains Mono&#39;,monospace;font-size:9.8pt;&quot;&gt;&lt;pre&gt;GameSDKEventReceiver&lt;/pre&gt;&lt;/div&gt;" style="html=1;whiteSpace=wrap;movable=0;resizable=0;rotatable=0;deletable=0;editable=0;locked=1;connectable=0;" parent="1" vertex="1">
          <mxGeometry x="-1262" y="-20" width="157" height="60" as="geometry" />
        </mxCell>
        <mxCell id="WZiGVIkwPijSqolq5ETo-29" value="新建时调用构造函数添加自己到静态的CopyOnWriteArrayList&lt;span style=&quot;background-color: rgb(23, 35, 61); font-family: &amp;quot;JetBrains Mono&amp;quot;, monospace; font-size: 9.8pt; color: rgb(232, 186, 54);&quot;&gt;&amp;lt;&lt;/span&gt;&lt;span style=&quot;background-color: rgb(23, 35, 61); color: rgb(175, 185, 195); font-family: &amp;quot;JetBrains Mono&amp;quot;, monospace; font-size: 9.8pt;&quot;&gt;WeakReference&lt;/span&gt;&lt;span style=&quot;background-color: rgb(23, 35, 61); font-family: &amp;quot;JetBrains Mono&amp;quot;, monospace; font-size: 9.8pt; color: rgb(84, 168, 87);&quot;&gt;&amp;lt;&lt;/span&gt;&lt;span style=&quot;background-color: rgb(23, 35, 61); color: rgb(175, 185, 195); font-family: &amp;quot;JetBrains Mono&amp;quot;, monospace; font-size: 9.8pt;&quot;&gt;BaseReceiver&lt;/span&gt;&lt;span style=&quot;background-color: rgb(23, 35, 61); font-family: &amp;quot;JetBrains Mono&amp;quot;, monospace; font-size: 9.8pt; color: rgb(84, 168, 87);&quot;&gt;&amp;gt;&lt;/span&gt;&lt;span style=&quot;background-color: rgb(23, 35, 61); font-family: &amp;quot;JetBrains Mono&amp;quot;, monospace; font-size: 9.8pt; color: rgb(232, 186, 54);&quot;&gt;&amp;gt; &lt;/span&gt;&lt;span style=&quot;background-color: rgb(23, 35, 61); font-family: &amp;quot;JetBrains Mono&amp;quot;, monospace; font-size: 9.8pt; color: rgb(255, 150, 150);&quot;&gt;mContainer&lt;/span&gt;" style="text;html=1;strokeColor=none;fillColor=none;align=center;verticalAlign=middle;whiteSpace=wrap;rounded=0;movable=0;resizable=0;rotatable=0;deletable=0;editable=0;locked=1;connectable=0;" parent="1" vertex="1">
          <mxGeometry x="-1410" y="40" width="385" height="70" as="geometry" />
        </mxCell>
        <mxCell id="WZiGVIkwPijSqolq5ETo-33" style="edgeStyle=orthogonalEdgeStyle;rounded=0;orthogonalLoop=1;jettySize=auto;html=1;exitX=0.5;exitY=1;exitDx=0;exitDy=0;movable=0;resizable=0;rotatable=0;deletable=0;editable=0;locked=1;connectable=0;" parent="1" source="WZiGVIkwPijSqolq5ETo-31" target="WZiGVIkwPijSqolq5ETo-28" edge="1">
          <mxGeometry relative="1" as="geometry" />
        </mxCell>
        <mxCell id="WZiGVIkwPijSqolq5ETo-31" value="App" style="html=1;whiteSpace=wrap;movable=0;resizable=0;rotatable=0;deletable=0;editable=0;locked=1;connectable=0;" parent="1" vertex="1">
          <mxGeometry x="-1238.5" y="-110" width="110" height="50" as="geometry" />
        </mxCell>
        <mxCell id="WZiGVIkwPijSqolq5ETo-32" value="New" style="text;html=1;strokeColor=none;fillColor=none;align=center;verticalAlign=middle;whiteSpace=wrap;rounded=0;movable=0;resizable=0;rotatable=0;deletable=0;editable=0;locked=1;connectable=0;" parent="1" vertex="1">
          <mxGeometry x="-1238.5" y="-60" width="60" height="30" as="geometry" />
        </mxCell>
      </root>
    </mxGraphModel>
  </diagram>
</mxfile>
